<svg width="104" height="24" viewBox="0 0 104 24" fill="none" xmlns="http://www.w3.org/2000/svg">
<path d="M9.74969 19.456C8.24569 19.456 6.91769 19.208 5.76569 18.712C4.62969 18.2 3.66969 17.52 2.88569 16.672C2.11769 15.808 1.53369 14.84 1.13369 13.768C0.749688 12.68 0.557688 11.552 0.557688 10.384V9.856C0.557688 8.752 0.749688 7.672 1.13369 6.616C1.51769 5.56 2.07769 4.608 2.81369 3.76C3.56569 2.912 4.48569 2.24 5.57369 1.744C6.67769 1.232 7.94169 0.975999 9.36569 0.975999C10.9017 0.975999 12.2617 1.264 13.4457 1.84C14.6297 2.4 15.5817 3.192 16.3017 4.216C17.0217 5.224 17.4457 6.4 17.5737 7.744H14.1417C14.0297 6.992 13.7497 6.352 13.3017 5.824C12.8537 5.28 12.2857 4.864 11.5977 4.576C10.9257 4.288 10.1817 4.144 9.36569 4.144C8.54969 4.144 7.80569 4.288 7.13369 4.576C6.47769 4.864 5.91769 5.272 5.45369 5.8C4.98969 6.328 4.62969 6.96 4.37369 7.696C4.13369 8.432 4.01369 9.248 4.01369 10.144C4.01369 11.12 4.14969 11.992 4.42169 12.76C4.69369 13.528 5.07769 14.184 5.57369 14.728C6.06969 15.256 6.66969 15.664 7.37369 15.952C8.07769 16.224 8.86969 16.36 9.74969 16.36C10.9177 16.36 11.9417 16.12 12.8217 15.64C13.7017 15.144 14.3417 14.504 14.7417 13.72L14.1417 16.48V11.968H17.2857V15.856C16.5337 16.992 15.5097 17.88 14.2137 18.52C12.9177 19.144 11.4297 19.456 9.74969 19.456ZM9.19769 12.64V10.096H18.7497V12.64H9.19769ZM21.2944 19V5.968H23.9344V11.488H23.8624C23.8624 9.616 24.2624 8.2 25.0624 7.24C25.8624 6.28 27.0384 5.8 28.5904 5.8H29.0704V8.704H28.1584C27.0384 8.704 26.1664 9.008 25.5424 9.616C24.9344 10.208 24.6304 11.072 24.6304 12.208V19H21.2944ZM39.1279 19V15.136H38.5759V10.84C38.5759 10.088 38.3919 9.528 38.0239 9.16C37.6559 8.792 37.0879 8.608 36.3199 8.608C35.9199 8.608 35.4399 8.616 34.8799 8.632C34.3199 8.648 33.7519 8.672 33.1759 8.704C32.6159 8.72 32.1119 8.744 31.6639 8.776V5.944C32.0319 5.912 32.4479 5.88 32.9119 5.848C33.3759 5.816 33.8479 5.8 34.3279 5.8C34.8239 5.784 35.2879 5.776 35.7199 5.776C37.0639 5.776 38.1759 5.952 39.0559 6.304C39.9519 6.656 40.6239 7.208 41.0719 7.96C41.5359 8.712 41.7679 9.696 41.7679 10.912V19H39.1279ZM34.9279 19.336C33.9839 19.336 33.1519 19.168 32.4319 18.832C31.7279 18.496 31.1759 18.016 30.7759 17.392C30.3919 16.768 30.1999 16.016 30.1999 15.136C30.1999 14.176 30.4319 13.392 30.8959 12.784C31.3759 12.176 32.0399 11.72 32.8879 11.416C33.7519 11.112 34.7599 10.96 35.9119 10.96H38.9359V12.952H35.8639C35.0959 12.952 34.5039 13.144 34.0879 13.528C33.6879 13.896 33.4879 14.376 33.4879 14.968C33.4879 15.56 33.6879 16.04 34.0879 16.408C34.5039 16.776 35.0959 16.96 35.8639 16.96C36.3279 16.96 36.7519 16.88 37.1359 16.72C37.5359 16.544 37.8639 16.256 38.1199 15.856C38.3919 15.44 38.5439 14.88 38.5759 14.176L39.3919 15.112C39.3119 16.024 39.0879 16.792 38.7199 17.416C38.3679 18.04 37.8719 18.52 37.2319 18.856C36.6079 19.176 35.8399 19.336 34.9279 19.336ZM45.3413 23.8V5.968H47.9813V11.584L47.5733 11.56C47.6373 10.232 47.9093 9.12 48.3893 8.224C48.8853 7.328 49.5413 6.664 50.3573 6.232C51.1733 5.784 52.0853 5.56 53.0933 5.56C54.0213 5.56 54.8533 5.728 55.5893 6.064C56.3413 6.4 56.9813 6.872 57.5093 7.48C58.0533 8.088 58.4693 8.8 58.7573 9.616C59.0453 10.416 59.1893 11.28 59.1893 12.208V12.712C59.1893 13.656 59.0453 14.536 58.7573 15.352C58.4853 16.152 58.0773 16.864 57.5333 17.488C57.0053 18.096 56.3653 18.576 55.6133 18.928C54.8613 19.264 54.0213 19.432 53.0933 19.432C52.1173 19.432 51.2213 19.232 50.4053 18.832C49.6053 18.416 48.9573 17.784 48.4613 16.936C47.9653 16.072 47.6853 14.96 47.6213 13.6L48.6773 15.208V23.8H45.3413ZM52.2533 16.624C52.9733 16.624 53.5973 16.448 54.1253 16.096C54.6693 15.744 55.0933 15.256 55.3973 14.632C55.7013 13.992 55.8533 13.272 55.8533 12.472C55.8533 11.64 55.7013 10.92 55.3973 10.312C55.0933 9.704 54.6693 9.232 54.1253 8.896C53.5973 8.544 52.9733 8.368 52.2533 8.368C51.5973 8.368 50.9893 8.512 50.4293 8.8C49.8853 9.088 49.4373 9.512 49.0853 10.072C48.7493 10.632 48.5813 11.304 48.5813 12.088V13.048C48.5813 13.8 48.7573 14.44 49.1093 14.968C49.4613 15.496 49.9173 15.904 50.4773 16.192C51.0373 16.48 51.6293 16.624 52.2533 16.624ZM62.1226 19V1.48H65.4586V11.704H64.8826C64.8826 10.392 65.0506 9.28 65.3866 8.368C65.7226 7.456 66.2186 6.76 66.8746 6.28C67.5466 5.8 68.3946 5.56 69.4186 5.56H69.5626C71.0506 5.56 72.1786 6.072 72.9466 7.096C73.7146 8.12 74.0986 9.608 74.0986 11.56V19H70.7626V11.248C70.7626 10.416 70.5226 9.76 70.0426 9.28C69.5786 8.8 68.9626 8.56 68.1946 8.56C67.3786 8.56 66.7146 8.832 66.2026 9.376C65.7066 9.904 65.4586 10.6 65.4586 11.464V19H62.1226ZM78.3091 19V5.968H81.6451V19H78.3091ZM76.4851 8.464V5.968H81.6451V8.464H76.4851ZM79.5331 4.408C78.8771 4.408 78.3891 4.24 78.0691 3.904C77.7651 3.552 77.6131 3.12 77.6131 2.608C77.6131 2.064 77.7651 1.624 78.0691 1.288C78.3891 0.951999 78.8771 0.783998 79.5331 0.783998C80.1891 0.783998 80.6691 0.951999 80.9731 1.288C81.2771 1.624 81.4291 2.064 81.4291 2.608C81.4291 3.12 81.2771 3.552 80.9731 3.904C80.6691 4.24 80.1891 4.408 79.5331 4.408ZM91.2738 19.456C90.1378 19.456 89.1538 19.264 88.3218 18.88C87.5058 18.496 86.8178 17.984 86.2578 17.344C85.7138 16.704 85.3058 15.984 85.0338 15.184C84.7618 14.384 84.6258 13.568 84.6258 12.736V12.28C84.6258 11.4 84.7618 10.56 85.0338 9.76C85.3218 8.944 85.7458 8.224 86.3058 7.6C86.8658 6.96 87.5538 6.456 88.3698 6.088C89.2018 5.704 90.1618 5.512 91.2498 5.512C92.3858 5.512 93.4018 5.736 94.2978 6.184C95.1938 6.616 95.9058 7.224 96.4338 8.008C96.9778 8.792 97.2818 9.704 97.3458 10.744H94.1058C94.0258 10.072 93.7378 9.512 93.2418 9.064C92.7618 8.616 92.0978 8.392 91.2498 8.392C90.5138 8.392 89.8978 8.568 89.4018 8.92C88.9218 9.272 88.5618 9.76 88.3218 10.384C88.0818 10.992 87.9618 11.696 87.9618 12.496C87.9618 13.264 88.0738 13.96 88.2978 14.584C88.5378 15.208 88.8978 15.696 89.3778 16.048C89.8738 16.4 90.5058 16.576 91.2738 16.576C91.8498 16.576 92.3458 16.472 92.7618 16.264C93.1778 16.056 93.5058 15.768 93.7458 15.4C94.0018 15.032 94.1618 14.616 94.2258 14.152H97.4658C97.4018 15.208 97.0898 16.136 96.5298 16.936C95.9858 17.72 95.2578 18.336 94.3458 18.784C93.4498 19.232 92.4258 19.456 91.2738 19.456ZM99.493 19V15.16H103.237V19H99.493Z" fill="#DDCEB7"/>
</svg>
