<svg width="104" height="24" viewBox="0 0 104 24" fill="none" xmlns="http://www.w3.org/2000/svg">
<path d="M9.74968 18.672C8.24568 18.672 6.91768 18.424 5.76568 17.928C4.62968 17.416 3.66968 16.736 2.88568 15.888C2.11768 15.024 1.53368 14.056 1.13368 12.984C0.749678 11.896 0.557678 10.768 0.557678 9.6V9.072C0.557678 7.968 0.749678 6.888 1.13368 5.832C1.51768 4.776 2.07768 3.824 2.81368 2.976C3.56568 2.128 4.48568 1.456 5.57368 0.960001C6.67768 0.448 7.94168 0.192 9.36568 0.192C10.9017 0.192 12.2617 0.48 13.4457 1.056C14.6297 1.616 15.5817 2.408 16.3017 3.432C17.0217 4.44 17.4457 5.616 17.5737 6.96H14.1417C14.0297 6.208 13.7497 5.568 13.3017 5.04C12.8537 4.496 12.2857 4.08 11.5977 3.792C10.9257 3.504 10.1817 3.36 9.36568 3.36C8.54968 3.36 7.80568 3.504 7.13368 3.792C6.47768 4.08 5.91768 4.488 5.45368 5.016C4.98968 5.544 4.62968 6.176 4.37368 6.912C4.13368 7.648 4.01368 8.464 4.01368 9.36C4.01368 10.336 4.14968 11.208 4.42168 11.976C4.69368 12.744 5.07768 13.4 5.57368 13.944C6.06968 14.472 6.66968 14.88 7.37368 15.168C8.07768 15.44 8.86968 15.576 9.74968 15.576C10.9177 15.576 11.9417 15.336 12.8217 14.856C13.7017 14.36 14.3417 13.72 14.7417 12.936L14.1417 15.696V11.184H17.2857V15.072C16.5337 16.208 15.5097 17.096 14.2137 17.736C12.9177 18.36 11.4297 18.672 9.74968 18.672ZM9.19768 11.856V9.312H18.7497V11.856H9.19768Z" fill="#16181B"/>
<path d="M21.2944 18.216V5.184H23.9344V10.704H23.8624C23.8624 8.832 24.2624 7.416 25.0624 6.456C25.8624 5.496 27.0384 5.016 28.5904 5.016H29.0704V7.92H28.1584C27.0384 7.92 26.1664 8.224 25.5424 8.832C24.9344 9.424 24.6304 10.288 24.6304 11.424V18.216H21.2944Z" fill="#16181B"/>
<path d="M39.1279 18.216V14.352H38.5759V10.056C38.5759 9.304 38.3919 8.744 38.0239 8.376C37.6559 8.008 37.0879 7.824 36.3199 7.824C35.9199 7.824 35.4399 7.832 34.8799 7.848C34.3199 7.864 33.7519 7.888 33.1759 7.92C32.6159 7.936 32.1119 7.96 31.6639 7.992V5.16C32.0319 5.128 32.4479 5.096 32.9119 5.064C33.3759 5.032 33.8479 5.016 34.3279 5.016C34.8239 5 35.2879 4.992 35.7199 4.992C37.0639 4.992 38.1759 5.168 39.0559 5.52C39.9519 5.872 40.6239 6.424 41.0719 7.176C41.5359 7.928 41.7679 8.912 41.7679 10.128V18.216H39.1279ZM34.9279 18.552C33.9839 18.552 33.1519 18.384 32.4319 18.048C31.7279 17.712 31.1759 17.232 30.7759 16.608C30.3919 15.984 30.1999 15.232 30.1999 14.352C30.1999 13.392 30.4319 12.608 30.8959 12C31.3759 11.392 32.0399 10.936 32.8879 10.632C33.7519 10.328 34.7599 10.176 35.9119 10.176H38.9359V12.168H35.8639C35.0959 12.168 34.5039 12.36 34.0879 12.744C33.6879 13.112 33.4879 13.592 33.4879 14.184C33.4879 14.776 33.6879 15.256 34.0879 15.624C34.5039 15.992 35.0959 16.176 35.8639 16.176C36.3279 16.176 36.7519 16.096 37.1359 15.936C37.5359 15.76 37.8639 15.472 38.1199 15.072C38.3919 14.656 38.5439 14.096 38.5759 13.392L39.3919 14.328C39.3119 15.24 39.0879 16.008 38.7199 16.632C38.3679 17.256 37.8719 17.736 37.2319 18.072C36.6079 18.392 35.8399 18.552 34.9279 18.552Z" fill="#16181B"/>
<path d="M45.3413 23.016V5.184H47.9813V10.8L47.5733 10.776C47.6373 9.448 47.9093 8.336 48.3893 7.44C48.8853 6.544 49.5413 5.88 50.3573 5.448C51.1733 5 52.0853 4.776 53.0933 4.776C54.0213 4.776 54.8533 4.944 55.5893 5.28C56.3413 5.616 56.9813 6.088 57.5093 6.696C58.0533 7.304 58.4693 8.016 58.7573 8.832C59.0453 9.632 59.1893 10.496 59.1893 11.424V11.928C59.1893 12.872 59.0453 13.752 58.7573 14.568C58.4853 15.368 58.0773 16.08 57.5333 16.704C57.0053 17.312 56.3653 17.792 55.6133 18.144C54.8613 18.48 54.0213 18.648 53.0933 18.648C52.1173 18.648 51.2213 18.448 50.4053 18.048C49.6053 17.632 48.9573 17 48.4613 16.152C47.9653 15.288 47.6853 14.176 47.6213 12.816L48.6773 14.424V23.016H45.3413ZM52.2533 15.84C52.9733 15.84 53.5973 15.664 54.1253 15.312C54.6693 14.96 55.0933 14.472 55.3973 13.848C55.7013 13.208 55.8533 12.488 55.8533 11.688C55.8533 10.856 55.7013 10.136 55.3973 9.528C55.0933 8.92 54.6693 8.448 54.1253 8.112C53.5973 7.76 52.9733 7.584 52.2533 7.584C51.5973 7.584 50.9893 7.728 50.4293 8.016C49.8853 8.304 49.4373 8.728 49.0853 9.288C48.7493 9.848 48.5813 10.52 48.5813 11.304V12.264C48.5813 13.016 48.7573 13.656 49.1093 14.184C49.4613 14.712 49.9173 15.12 50.4773 15.408C51.0373 15.696 51.6293 15.84 52.2533 15.84Z" fill="#16181B"/>
<path d="M62.1226 18.216V0.696001H65.4586V10.92H64.8826C64.8826 9.608 65.0506 8.496 65.3866 7.584C65.7225 6.672 66.2186 5.976 66.8745 5.496C67.5465 5.016 68.3946 4.776 69.4186 4.776H69.5626C71.0506 4.776 72.1786 5.288 72.9466 6.312C73.7146 7.336 74.0986 8.824 74.0986 10.776V18.216H70.7626V10.464C70.7626 9.632 70.5226 8.976 70.0426 8.496C69.5786 8.016 68.9626 7.776 68.1946 7.776C67.3786 7.776 66.7146 8.048 66.2026 8.592C65.7066 9.12 65.4586 9.816 65.4586 10.68V18.216H62.1226Z" fill="#16181B"/>
<path d="M78.3091 18.216V5.184H81.6451V18.216H78.3091ZM76.4851 7.68V5.184H81.6451V7.68H76.4851ZM79.5331 3.624C78.8771 3.624 78.3891 3.456 78.0691 3.12C77.7651 2.768 77.6131 2.336 77.6131 1.824C77.6131 1.28 77.7651 0.840001 78.0691 0.504001C78.3891 0.168 78.8771 0 79.5331 0C80.189 0 80.6691 0.168 80.9731 0.504001C81.2771 0.840001 81.4291 1.28 81.4291 1.824C81.4291 2.336 81.2771 2.768 80.9731 3.12C80.6691 3.456 80.189 3.624 79.5331 3.624Z" fill="#16181B"/>
<path d="M91.2737 18.672C90.1377 18.672 89.1537 18.48 88.3217 18.096C87.5057 17.712 86.8177 17.2 86.2577 16.56C85.7137 15.92 85.3057 15.2 85.0337 14.4C84.7617 13.6 84.6257 12.784 84.6257 11.952V11.496C84.6257 10.616 84.7617 9.776 85.0337 8.976C85.3217 8.16 85.7457 7.44 86.3057 6.816C86.8657 6.176 87.5537 5.672 88.3697 5.304C89.2017 4.92 90.1617 4.728 91.2497 4.728C92.3857 4.728 93.4017 4.952 94.2977 5.4C95.1937 5.832 95.9057 6.44 96.4337 7.224C96.9777 8.008 97.2817 8.92 97.3457 9.96H94.1057C94.0257 9.288 93.7377 8.728 93.2417 8.28C92.7617 7.832 92.0977 7.608 91.2497 7.608C90.5137 7.608 89.8977 7.784 89.4017 8.136C88.9217 8.488 88.5617 8.976 88.3217 9.6C88.0817 10.208 87.9617 10.912 87.9617 11.712C87.9617 12.48 88.0737 13.176 88.2977 13.8C88.5377 14.424 88.8977 14.912 89.3777 15.264C89.8737 15.616 90.5057 15.792 91.2737 15.792C91.8497 15.792 92.3457 15.688 92.7617 15.48C93.1777 15.272 93.5057 14.984 93.7457 14.616C94.0017 14.248 94.1617 13.832 94.2257 13.368H97.4657C97.4017 14.424 97.0897 15.352 96.5297 16.152C95.9857 16.936 95.2577 17.552 94.3457 18C93.4497 18.448 92.4257 18.672 91.2737 18.672Z" fill="#16181B"/>
<path d="M99.493 18.216V14.376H103.237V18.216H99.493Z" fill="#16181B"/>
</svg>
