<svg width="131" height="131" viewBox="0 0 131 131" fill="none" xmlns="http://www.w3.org/2000/svg">
<circle cx="65.5" cy="65.5" r="65.5" fill="#F66B6B"/>
<path d="M26.1005 65.1692L20.2634 65.3535L20.2275 64.2181L26.0646 64.0338L26.1005 65.1692ZM26.2214 68.9993L20.3843 69.1836L20.3484 68.0482L26.1855 67.8639L26.2214 68.9993ZM23.7693 68.1483L22.7698 68.1798L22.6716 65.0694L23.6711 65.0378L23.7693 68.1483Z" fill="black"/>
<path d="M27.2367 55.7647C27.1095 56.2771 26.9084 56.6998 26.6334 57.0327C26.3597 57.3604 26.0471 57.6125 25.6956 57.789C25.3401 57.959 24.9788 58.0644 24.6115 58.1051C24.2403 58.1394 23.8968 58.1173 23.5811 58.0389L23.4102 57.9965C23.0634 57.9104 22.7346 57.7629 22.4238 57.5538C22.1079 57.3435 21.841 57.0794 21.6231 56.7616C21.4066 56.4386 21.2617 56.0701 21.1886 55.6563C21.1103 55.2412 21.1335 54.7827 21.2581 54.2806C21.3815 53.7836 21.5748 53.37 21.8381 53.0397C22.0963 52.7082 22.396 52.4529 22.7372 52.2738C23.0796 52.0895 23.4397 51.9783 23.8174 51.9402C24.1898 51.9008 24.5495 51.9241 24.8963 52.0102L25.0671 52.0526C25.3828 52.131 25.6961 52.2747 26.0069 52.4837C26.3138 52.6863 26.5839 52.9484 26.8173 53.2701C27.0468 53.5854 27.2052 53.9544 27.2926 54.3773C27.3812 54.7949 27.3626 55.2574 27.2367 55.7647ZM26.2118 55.5102C26.2837 55.2204 26.2962 54.9487 26.2492 54.6953C26.2035 54.4366 26.11 54.2046 25.9687 53.9992C25.8234 53.7873 25.6446 53.611 25.4323 53.4703C25.216 53.3232 24.9759 53.2169 24.7119 53.1514C24.4272 53.0807 24.1549 53.0598 23.8949 53.0887C23.6363 53.1124 23.3984 53.1853 23.1813 53.3072C22.9654 53.424 22.7794 53.5866 22.6233 53.7952C22.4671 54.0037 22.3537 54.2503 22.283 54.535C22.2111 54.8248 22.1953 55.0984 22.2359 55.3558C22.2764 55.6131 22.3641 55.8465 22.499 56.0558C22.6351 56.26 22.8113 56.4356 23.0276 56.5827C23.2452 56.7246 23.4963 56.8309 23.781 56.9016C24.045 56.9671 24.3063 56.988 24.5649 56.9643C24.8197 56.9341 25.0602 56.8619 25.2864 56.7477C25.5087 56.6271 25.7005 56.4631 25.8618 56.2559C26.0232 56.0487 26.1398 55.8001 26.2118 55.5102Z" fill="black"/>
<path d="M30.3 46.7849L25.8916 44.4257L26.4276 43.4241L30.836 45.7833L30.3 46.7849ZM25.2362 45.9894L24.3545 45.5176L26.4835 41.5395L27.3652 42.0113L25.2362 45.9894Z" fill="black"/>
<path d="M37.2607 36.9328L33.3048 32.6367L34.1405 31.8672L38.0964 36.1633L37.2607 36.9328ZM36.3313 34.4826L35.681 33.7764L37.394 32.1881L38.0443 32.8943L36.3313 34.4826ZM34.6731 32.6818L34.0228 31.9755L35.8236 30.3173L36.4739 31.0235L34.6731 32.6818Z" fill="black"/>
<path d="M46.2409 30.2653C45.7766 30.5166 45.3288 30.6529 44.8975 30.6741C44.471 30.6927 44.074 30.6316 43.7067 30.4908C43.3416 30.3428 43.0202 30.1468 42.7426 29.9029C42.4672 29.6517 42.252 29.3831 42.0972 29.097L42.0134 28.9422C41.8433 28.6279 41.7307 28.2856 41.6757 27.9151C41.6182 27.5399 41.6335 27.1647 41.7215 26.7896C41.8142 26.4119 41.9888 26.0566 42.2453 25.7238C42.4992 25.3862 42.8537 25.0943 43.3086 24.848C43.7589 24.6043 44.1948 24.4684 44.6162 24.4404C45.0352 24.4077 45.4258 24.457 45.788 24.5885C46.1549 24.7173 46.4797 24.9084 46.7624 25.1618C47.0425 25.4104 47.2676 25.6918 47.4377 26.0061L47.5215 26.1609C47.6764 26.447 47.7813 26.7753 47.8363 27.1458C47.8934 27.509 47.8818 27.8852 47.8014 28.2745C47.7231 28.6564 47.5572 29.0222 47.3037 29.3717C47.0548 29.7186 46.7006 30.0165 46.2409 30.2653ZM45.7382 29.3366C46.0009 29.1944 46.21 29.0206 46.3656 28.8151C46.5259 28.607 46.6343 28.3816 46.6909 28.1387C46.7496 27.8886 46.7593 27.6377 46.7201 27.3861C46.6831 27.1271 46.5998 26.8781 46.4703 26.6389C46.3307 26.3809 46.1626 26.1656 45.9661 25.993C45.7743 25.8179 45.5601 25.6912 45.3237 25.613C45.092 25.5322 44.8465 25.5044 44.5872 25.5295C44.3279 25.5547 44.0693 25.637 43.8113 25.7767C43.5486 25.9189 43.3359 26.0916 43.1731 26.295C43.0102 26.4983 42.8969 26.7204 42.8332 26.9611C42.7741 27.1993 42.7631 27.4478 42.8001 27.7067C42.8419 27.9631 42.9326 28.2203 43.0722 28.4782C43.2017 28.7174 43.3623 28.9246 43.5541 29.0997C43.7481 29.2676 43.9635 29.3967 44.2003 29.4868C44.4393 29.5697 44.6897 29.601 44.9515 29.5805C45.2133 29.5601 45.4756 29.4788 45.7382 29.3366Z" fill="black"/>
<path d="M53.821 26.7274L52.4539 21.0085L53.5587 20.7444L54.9259 26.4632L53.821 26.7274ZM57.2912 25.8978L54.9568 23.8402L56.194 23.5444L58.5828 25.589L57.2912 25.8978ZM54.1452 24.6429L53.9313 23.7481L55.3785 23.4021C55.5808 23.3537 55.7447 23.2707 55.8701 23.153C56.0007 23.034 56.0895 22.8894 56.1365 22.7191C56.1835 22.5489 56.1841 22.3678 56.1382 22.1759C56.0911 21.9787 56.0081 21.8149 55.8891 21.6843C55.7702 21.5537 55.6256 21.4649 55.4553 21.4179C55.2902 21.3696 55.1065 21.3696 54.9042 21.418L53.457 21.764L53.2319 20.8225L54.5624 20.5044C55.0189 20.3953 55.4293 20.3685 55.7935 20.424C56.1629 20.4783 56.4712 20.6212 56.7185 20.8527C56.9658 21.0842 57.139 21.4074 57.2382 21.8224L57.268 21.9469C57.3684 22.3671 57.3575 22.7343 57.2352 23.0487C57.1182 23.3618 56.9098 23.6255 56.61 23.8398C56.3103 24.054 55.9322 24.2157 55.4757 24.3248L54.1452 24.6429Z" fill="black"/>
<path d="M69.1147 25.161L69.6833 20.1934L70.8119 20.3226L70.2433 25.2902L69.1147 25.161ZM67.9881 20.1604L68.1018 19.1669L72.5845 19.6801L72.4708 20.6736L67.9881 20.1604Z" fill="black"/>
<path d="M79.9566 27.7048L81.9883 22.2296L83.0534 22.6248L81.0216 28.1L79.9566 27.7048ZM76.364 26.3716L78.3957 20.8964L79.4608 21.2916L77.429 26.7668L76.364 26.3716ZM78.0773 24.4219L78.4252 23.4843L81.3428 24.567L80.9949 25.5045L78.0773 24.4219Z" fill="black"/>
<path d="M86.0437 30.634L89.3252 25.8031L90.2451 26.428L86.9635 31.2588L86.0437 30.634ZM86.8311 31.1689L87.3706 30.3748L89.561 31.8627L89.0216 32.6569L86.8311 31.1689ZM88.2292 29.1108L88.7686 28.3167L90.787 29.6878L90.2475 30.4819L88.2292 29.1108ZM89.5733 27.1322L90.1127 26.3381L92.2502 27.7901L91.7107 28.5842L89.5733 27.1322Z" fill="black"/>
<path d="M96.1926 39.1729L101.039 35.9143L101.905 37.2022L99.8273 40.3634L99.9076 40.4829L103.615 39.7449L104.494 41.0528L99.6476 44.3114L99.0182 43.3753L103.154 40.5943L103.221 40.7227L99.2084 41.5218L98.5611 40.5592L100.811 37.1378L100.909 37.255L96.7729 40.036L96.1926 39.1729Z" fill="black"/>
<path d="M103.059 52.3257C102.904 51.8208 102.859 51.3549 102.924 50.928C102.99 50.5061 103.128 50.1291 103.339 49.797C103.556 49.4683 103.812 49.1921 104.106 48.9682C104.407 48.7479 104.713 48.5902 105.024 48.495L105.192 48.4435C105.534 48.3389 105.892 48.2964 106.266 48.3158C106.645 48.3336 107.01 48.4228 107.36 48.5833C107.712 48.7489 108.025 48.9904 108.301 49.3076C108.582 49.6233 108.798 50.0285 108.949 50.5232C109.099 51.0128 109.146 51.4669 109.09 51.8856C109.039 52.3028 108.913 52.6759 108.713 53.0049C108.514 53.3391 108.262 53.6196 107.958 53.8466C107.659 54.072 107.339 54.237 106.997 54.3415L106.829 54.393C106.518 54.4882 106.175 54.5261 105.801 54.5067C105.434 54.4909 105.067 54.405 104.701 54.2492C104.343 54.0969 104.017 53.8619 103.724 53.5442C103.434 53.2316 103.212 52.8255 103.059 52.3257ZM104.068 52.0167C104.156 52.3023 104.285 52.5417 104.456 52.7348C104.628 52.9331 104.827 53.084 105.054 53.1875C105.288 53.2945 105.532 53.3537 105.786 53.3651C106.047 53.38 106.308 53.3476 106.568 53.268C106.849 53.1822 107.093 53.0601 107.301 52.9016C107.511 52.7482 107.677 52.5634 107.801 52.3471C107.926 52.136 108.001 51.9008 108.028 51.6417C108.055 51.3825 108.025 51.1127 107.939 50.8322C107.852 50.5466 107.725 50.3039 107.558 50.104C107.39 49.9042 107.195 49.7492 106.972 49.6391C106.75 49.534 106.509 49.474 106.248 49.4591C105.988 49.4493 105.718 49.4873 105.437 49.5732C105.177 49.6528 104.942 49.7692 104.733 49.9226C104.53 50.0796 104.361 50.2652 104.226 50.4794C104.097 50.6972 104.017 50.9365 103.985 51.1972C103.953 51.4579 103.981 51.7311 104.068 52.0167Z" fill="black"/>
<path d="M104.979 63.209C104.971 62.681 105.058 62.221 105.238 61.8288C105.419 61.442 105.657 61.1183 105.951 60.8578C106.251 60.6025 106.574 60.4081 106.918 60.2748C107.269 60.1468 107.606 60.0802 107.932 60.0752L108.108 60.0725C108.465 60.067 108.82 60.1256 109.174 60.2482C109.534 60.3707 109.859 60.5577 110.151 60.8092C110.443 61.0661 110.677 61.3852 110.854 61.7665C111.036 62.1478 111.131 62.597 111.139 63.1143C111.146 63.6263 111.065 64.0756 110.895 64.4622C110.731 64.8488 110.506 65.1723 110.222 65.4327C109.938 65.6984 109.619 65.898 109.263 66.0315C108.913 66.1649 108.56 66.2343 108.202 66.2398L108.026 66.2425C107.701 66.2475 107.361 66.1887 107.007 66.0662C106.659 65.9488 106.331 65.7645 106.023 65.5132C105.72 65.2672 105.473 64.9509 105.28 64.5645C105.088 64.1834 104.987 63.7316 104.979 63.209ZM106.035 63.1928C106.04 63.4914 106.097 63.7572 106.207 63.9902C106.318 64.2285 106.468 64.4289 106.657 64.5914C106.851 64.7591 107.069 64.8837 107.311 64.9654C107.557 65.0522 107.817 65.0936 108.089 65.0894C108.382 65.0849 108.651 65.0354 108.894 64.941C109.138 64.8519 109.35 64.7207 109.528 64.5472C109.707 64.3791 109.845 64.1743 109.943 63.9328C110.041 63.6913 110.087 63.4238 110.083 63.1305C110.078 62.8319 110.023 62.5634 109.918 62.325C109.813 62.0866 109.669 61.8834 109.485 61.7156C109.301 61.553 109.086 61.4283 108.839 61.3414C108.592 61.2599 108.323 61.2214 108.029 61.2259C107.757 61.2301 107.499 61.2767 107.255 61.3658C107.017 61.4601 106.803 61.5914 106.613 61.7597C106.429 61.9332 106.286 62.1408 106.183 62.3824C106.08 62.624 106.031 62.8941 106.035 63.1928Z" fill="black"/>
<path d="M27.2704 74.2353C27.1432 73.7229 26.9421 73.3002 26.6671 72.9673C26.3934 72.6396 26.0808 72.3875 25.7293 72.211C25.3738 72.041 25.0125 71.9356 24.6452 71.8949C24.274 71.8606 23.9305 71.8827 23.6148 71.9611L23.4439 72.0035C23.0971 72.0896 22.7683 72.2371 22.4575 72.4462C22.1416 72.6565 21.8747 72.9206 21.6568 73.2384C21.4403 73.5614 21.2954 73.9299 21.2223 74.3437C21.144 74.7588 21.1672 75.2173 21.2918 75.7194C21.4152 76.2164 21.6085 76.63 21.8718 76.9603C22.13 77.2918 22.4297 77.5471 22.7709 77.7262C23.1133 77.9105 23.4734 78.0217 23.851 78.0598C24.2235 78.0992 24.5832 78.0759 24.93 77.9898L25.1008 77.9474C25.4165 77.869 25.7298 77.7253 26.0406 77.5163C26.3475 77.3137 26.6176 77.0516 26.851 76.7299C27.0805 76.4146 27.2389 76.0456 27.3263 75.6227C27.4149 75.2051 27.3963 74.7426 27.2704 74.2353ZM26.2455 74.4898C26.3174 74.7796 26.3299 75.0513 26.2829 75.3047C26.2372 75.5634 26.1437 75.7954 26.0024 76.0008C25.8571 76.2127 25.6783 76.389 25.466 76.5297C25.2497 76.6768 25.0096 76.7831 24.7456 76.8486C24.4609 76.9193 24.1886 76.9402 23.9286 76.9113C23.67 76.8876 23.4321 76.8147 23.215 76.6928C22.9991 76.576 22.8131 76.4134 22.657 76.2048C22.5008 75.9963 22.3874 75.7497 22.3167 75.465C22.2448 75.1752 22.229 74.9016 22.2696 74.6442C22.3101 74.3869 22.3978 74.1535 22.5327 73.9442C22.6688 73.74 22.845 73.5644 23.0613 73.4173C23.2788 73.2754 23.53 73.1691 23.8147 73.0984C24.0786 73.0329 24.34 73.012 24.5986 73.0357C24.8534 73.0659 25.0939 73.1381 25.3201 73.2523C25.5424 73.3729 25.7342 73.5369 25.8955 73.7441C26.0569 73.9513 26.1735 74.1999 26.2455 74.4898Z" fill="black"/>
<path d="M30.3332 83.2151L25.9248 85.5743L26.4608 86.5759L30.8692 84.2167L30.3332 83.2151ZM25.2694 84.0106L24.3877 84.4824L26.5167 88.4605L27.3984 87.9887L25.2694 84.0106Z" fill="black"/>
<path d="M37.2949 93.0672L33.339 97.3633L34.1747 98.1328L38.1306 93.8367L37.2949 93.0672ZM36.3655 95.5174L35.7152 96.2236L37.4282 97.8119L38.0785 97.1057L36.3655 95.5174ZM34.7072 97.3182L34.057 98.0245L35.8578 99.6827L36.5081 98.9765L34.7072 97.3182Z" fill="black"/>
<path d="M46.2746 99.7347C45.8102 99.4834 45.3624 99.3471 44.9312 99.3259C44.5046 99.3073 44.1077 99.3684 43.7404 99.5092C43.3752 99.6572 43.0538 99.8532 42.7763 100.097C42.5008 100.348 42.2857 100.617 42.1308 100.903L42.047 101.058C41.8769 101.372 41.7644 101.714 41.7094 102.085C41.6518 102.46 41.6671 102.835 41.7551 103.21C41.8479 103.588 42.0225 103.943 42.2789 104.276C42.5328 104.614 42.8873 104.906 43.3422 105.152C43.7925 105.396 44.2284 105.532 44.6499 105.56C45.0688 105.592 45.4594 105.543 45.8216 105.412C46.1886 105.283 46.5134 105.092 46.796 104.838C47.0761 104.59 47.3013 104.308 47.4714 103.994L47.5551 103.839C47.71 103.553 47.8149 103.225 47.8699 102.854C47.9271 102.491 47.9154 102.115 47.835 101.726C47.7567 101.344 47.5908 100.978 47.3373 100.628C47.0885 100.281 46.7342 99.9835 46.2746 99.7347ZM45.7719 100.663C46.0345 100.806 46.2437 100.979 46.3993 101.185C46.5595 101.393 46.668 101.618 46.7245 101.861C46.7832 102.111 46.7929 102.362 46.7537 102.614C46.7167 102.873 46.6334 103.122 46.5039 103.361C46.3643 103.619 46.1962 103.834 45.9997 104.007C45.8079 104.182 45.5938 104.309 45.3574 104.387C45.1256 104.468 44.8801 104.496 44.6208 104.47C44.3615 104.445 44.1029 104.363 43.8449 104.223C43.5823 104.081 43.3695 103.908 43.2067 103.705C43.0439 103.502 42.9306 103.28 42.8668 103.039C42.8077 102.801 42.7967 102.552 42.8338 102.293C42.8755 102.037 42.9662 101.78 43.1058 101.522C43.2353 101.283 43.396 101.075 43.5878 100.9C43.7818 100.732 43.9972 100.603 44.234 100.513C44.4729 100.43 44.7233 100.399 44.9851 100.419C45.247 100.44 45.5092 100.521 45.7719 100.663Z" fill="black"/>
<path d="M53.8548 103.273L52.4877 108.991L53.5926 109.256L54.9597 103.537L53.8548 103.273ZM57.3251 104.102L54.9907 106.16L56.2278 106.456L58.6167 104.411L57.3251 104.102ZM54.1791 105.357L53.9652 106.252L55.4124 106.598C55.6147 106.646 55.7785 106.729 55.9039 106.847C56.0345 106.966 56.1233 107.111 56.1704 107.281C56.2174 107.451 56.218 107.632 56.1721 107.824C56.125 108.021 56.0419 108.185 55.923 108.316C55.804 108.446 55.6594 108.535 55.4891 108.582C55.324 108.63 55.1404 108.63 54.9381 108.582L53.4908 108.236L53.2658 109.177L54.5963 109.496C55.0528 109.605 55.4631 109.632 55.8273 109.576C56.1967 109.522 56.5051 109.379 56.7523 109.147C56.9996 108.916 57.1728 108.593 57.2721 108.178L57.3018 108.053C57.4023 107.633 57.3913 107.266 57.2691 106.951C57.152 106.638 56.9436 106.374 56.6439 106.16C56.3441 105.946 55.966 105.784 55.5096 105.675L54.1791 105.357Z" fill="black"/>
<path d="M69.1483 104.839L69.7169 109.807L70.8455 109.677L70.2769 104.71L69.1483 104.839ZM68.0217 109.84L68.1354 110.833L72.6181 110.32L72.5044 109.326L68.0217 109.84Z" fill="black"/>
<path d="M79.9903 102.295L82.022 107.77L83.0871 107.375L81.0553 101.9L79.9903 102.295ZM76.3976 103.628L78.4294 109.104L79.4944 108.708L77.4627 103.233L76.3976 103.628ZM78.111 105.578L78.4589 106.516L81.3765 105.433L81.0286 104.495L78.111 105.578Z" fill="black"/>
<path d="M86.0773 99.366L89.3589 104.197L90.2787 103.572L86.9972 98.7412L86.0773 99.366ZM86.8648 98.8311L87.4043 99.6252L89.5947 98.1373L89.0553 97.3431L86.8648 98.8311ZM88.2629 100.889L88.8023 101.683L90.8207 100.312L90.2812 99.5181L88.2629 100.889ZM89.607 102.868L90.1464 103.662L92.2839 102.21L91.7444 101.416L89.607 102.868Z" fill="black"/>
<path d="M96.2262 90.8271L101.073 94.0857L101.939 92.7978L99.8609 89.6366L99.9413 89.5171L103.648 90.2551L104.528 88.9472L99.6812 85.6886L99.0518 86.6247L103.188 89.4057L103.255 89.2773L99.242 88.4782L98.5947 89.4408L100.844 92.8622L100.943 92.745L96.8065 89.964L96.2262 90.8271Z" fill="black"/>
<path d="M103.092 77.6743C102.938 78.1792 102.893 78.6451 102.958 79.072C103.024 79.4939 103.162 79.8709 103.373 80.203C103.59 80.5317 103.846 80.8079 104.14 81.0318C104.441 81.2521 104.746 81.4098 105.058 81.505L105.226 81.5565C105.568 81.6611 105.925 81.7036 106.299 81.6842C106.679 81.6664 107.043 81.5772 107.394 81.4167C107.745 81.2511 108.059 81.0096 108.335 80.6924C108.615 80.3767 108.831 79.9715 108.983 79.4768C109.133 78.9872 109.18 78.5331 109.124 78.1144C109.073 77.6972 108.947 77.3241 108.747 76.9951C108.548 76.6609 108.296 76.3804 107.992 76.1534C107.693 75.928 107.372 75.763 107.031 75.6585L106.862 75.607C106.551 75.5118 106.209 75.4739 105.835 75.4933C105.467 75.5091 105.101 75.595 104.735 75.7508C104.376 75.9031 104.051 76.1381 103.758 76.4558C103.467 76.7684 103.245 77.1745 103.092 77.6743ZM104.102 77.9833C104.19 77.6977 104.319 77.4583 104.489 77.2652C104.662 77.0669 104.861 76.916 105.088 76.8125C105.321 76.7055 105.565 76.6463 105.82 76.6349C106.081 76.62 106.342 76.6524 106.602 76.732C106.882 76.8178 107.127 76.9399 107.335 77.0984C107.544 77.2518 107.711 77.4366 107.834 77.6529C107.959 77.864 108.035 78.0992 108.062 78.3583C108.088 78.6175 108.059 78.8873 107.973 79.1678C107.886 79.4534 107.758 79.6961 107.591 79.896C107.424 80.0958 107.229 80.2508 107.006 80.3609C106.784 80.466 106.542 80.526 106.281 80.5409C106.022 80.5507 105.752 80.5127 105.471 80.4268C105.211 80.3472 104.976 80.2308 104.767 80.0774C104.564 79.9204 104.394 79.7348 104.259 79.5206C104.131 79.3028 104.051 79.0635 104.019 78.8028C103.987 78.5421 104.015 78.2689 104.102 77.9833Z" fill="black"/>
</svg>
